# xmcd
#
# Track frame offsets:
#	150
#	20406
#	36060
#	54854
#	71844
#	90533
#	109702
#	129928
#	149268
#	167137
#	188927
#	206582
#	221359
#	236111
#	257163
#	277767
#	301547
#
# Disc length: 4257 seconds
#
# Revision: 1
# Processed by: cddbd v1.5.2PL0 Copyright (c) Steve Scherf et al.
# Submitted via: EasyCDDAExtractor 16.1.0.1
#
DISCID=e6109f11
DTITLE=Various Artist - 寶麗金珍藏榜
DYEAR=1900
DGENRE=Country
TTITLE0=寶麗金珍藏榜
TTITLE1=仍然喜歡你
TTITLE2=天長地久
TTITLE3=是不是這樣的夜晚你才會這樣的想起我
TTITLE4=難得有情人
TTITLE5=太陽星辰
TTITLE6=傷感戀人
TTITLE7=天若有情
TTITLE8=約定
TTITLE9=愛不完
TTITLE10=朋友
TTITLE11=戀曲 sha la la
TTITLE12=天各一方
TTITLE13=日本娃娃
TTITLE14=?念一世紀
TTITLE15=堆積情感
TTITLE16=雨季不再來
EXTD=
EXTT0=
EXTT1=
EXTT2=
EXTT3=
EXTT4=
EXTT5=
EXTT6=
EXTT7=
EXTT8=
EXTT9=
EXTT10=
EXTT11=
EXTT12=
EXTT13=
EXTT14=
EXTT15=
EXTT16=
PLAYORDER=
